<?xml version="1.0" standalone="no"?>
<!DOCTYPE svg PUBLIC "-//W3C//DTD SVG 20010904//EN"
 "http://www.w3.org/TR/2001/REC-SVG-20010904/DTD/svg10.dtd">
<svg version="1.0" xmlns="http://www.w3.org/2000/svg"
 width="300.000000pt" height="300.000000pt" viewBox="0 0 300.000000 300.000000"
 preserveAspectRatio="xMidYMid meet">

<g transform="translate(0.000000,300.000000) scale(0.100000,-0.100000)"
fill="#000000" stroke="none">
<path d="M0 1500 l0 -1500 1500 0 1500 0 0 1500 0 1500 -1500 0 -1500 0 0
-1500z m2153 1132 c136 -48 212 -230 222 -530 4 -132 16 -123 -153 -120 l-145
3 -13 46 c-10 34 -20 48 -36 52 -19 5 -238 9 -350 7 -56 0 -85 -73 -59 -143 9
-23 16 -25 93 -31 46 -3 153 -8 238 -12 263 -10 259 -9 304 -41 50 -35 98
-127 119 -228 17 -79 20 -339 6 -449 -12 -92 -35 -180 -61 -234 -29 -57 -96
-118 -145 -131 -95 -26 -511 -35 -578 -12 -106 34 -171 88 -207 167 -30 68
-58 235 -64 372 l-4 122 149 0 150 0 12 -40 c7 -22 17 -44 24 -50 6 -5 103
-10 215 -11 197 -1 204 -1 221 20 17 21 20 95 5 120 -13 20 -82 29 -273 36
-290 9 -343 22 -409 99 -66 77 -93 219 -88 456 4 217 46 389 112 464 24 27 84
63 123 75 19 5 149 9 289 9 214 0 263 -2 303 -16z m-1200 -30 c214 -55 334
-405 321 -932 -4 -183 -5 -196 -30 -348 -40 -240 -148 -429 -265 -461 -44 -12
-214 -16 -551 -13 l-178 2 0 880 0 879 133 3 c236 5 531 0 570 -10z m1797
-873 l0 -879 -155 0 -155 0 0 880 0 881 155 -2 155 -1 0 -879z m-1211 -1084
c12 -32 12 -38 0 -46 -20 -13 -23 -12 -34 13 -15 33 -43 35 -55 3 -13 -34 -13
-151 0 -176 17 -30 47 -24 55 11 7 32 12 35 33 21 11 -6 11 -17 3 -48 -24 -88
-87 -97 -123 -16 -17 38 -20 61 -16 138 4 99 20 139 61 155 30 11 59 -9 76
-55z m509 15 c22 -33 27 -63 23 -157 -2 -75 -21 -125 -53 -143 -32 -17 -50
-10 -82 34 -17 21 -22 46 -25 113 -4 100 9 154 45 182 32 25 61 16 92 -29z
m329 4 c21 -33 30 -172 14 -230 -6 -22 -22 -51 -36 -64 -35 -33 -73 -19 -99
35 -27 54 -28 186 -2 244 30 66 85 72 123 15z m170 23 c20 -15 35 -80 20 -89
-19 -12 -23 -10 -35 17 -15 32 -46 32 -60 0 -24 -52 -10 -177 21 -197 18 -11
47 11 47 37 0 18 -5 25 -20 25 -16 0 -20 7 -20 30 0 28 2 30 40 30 l40 0 0
-73 c0 -81 -10 -99 -62 -112 -57 -14 -98 64 -98 185 1 127 62 198 127 147z
m-2232 -74 c6 -45 13 -84 16 -88 4 -3 10 23 13 57 13 113 16 119 45 116 l26
-3 1 -167 c1 -157 0 -168 -17 -168 -17 0 -19 10 -20 98 l-2 97 -9 -65 c-17
-127 -18 -130 -37 -130 -14 0 -20 11 -25 46 -3 26 -6 59 -6 75 0 15 -4 30 -9
33 -6 4 -9 -27 -8 -74 2 -70 0 -80 -15 -80 -16 0 -18 15 -18 171 l0 170 28 -3
c26 -3 27 -6 37 -85z m255 57 c0 -29 -2 -30 -45 -30 -45 0 -45 0 -45 -35 0
-35 0 -35 45 -35 43 0 45 -1 45 -30 0 -17 -5 -30 -12 -31 -7 0 -26 -2 -43 -2
-28 -2 -30 -5 -33 -44 l-3 -43 50 0 c50 0 51 -1 51 -30 l0 -30 -68 0 -67 0 1
168 c1 92 2 168 3 170 0 1 28 2 61 2 l60 0 0 -30z m160 0 c0 -25 -4 -30 -25
-30 l-25 0 0 -140 c0 -133 -1 -140 -20 -140 -19 0 -20 7 -20 140 l0 140 -25 0
c-21 0 -25 5 -25 30 l0 30 70 0 70 0 0 -30z m100 -37 c18 -88 16 -79 29 -148
6 -33 15 -75 20 -93 9 -30 8 -32 -14 -32 -19 0 -24 7 -30 38 -6 40 -8 41 -67
33 -5 -1 -8 -10 -8 -20 0 -33 -11 -51 -31 -51 -15 0 -18 5 -14 23 8 34 33 165
45 237 14 76 16 80 39 80 13 0 20 -15 31 -67z m108 -76 l3 -137 39 0 c38 0 40
-2 40 -30 l0 -30 -60 0 -60 0 0 171 c0 157 1 170 18 167 15 -3 17 -19 20 -141z
m292 113 c0 -25 -4 -30 -25 -30 l-25 0 0 -140 c0 -133 -1 -140 -20 -140 -19 0
-20 7 -20 140 l0 140 -25 0 c-21 0 -25 5 -25 30 l0 30 70 0 70 0 0 -30z m150
0 c0 -29 -1 -30 -48 -30 l-48 0 0 -35 c0 -35 1 -35 43 -35 41 0 43 -1 43 -30
0 -17 -5 -30 -12 -31 -7 0 -26 -2 -43 -2 -28 -2 -30 -5 -30 -42 l0 -40 48 -3
c45 -3 47 -5 47 -33 l0 -29 -65 0 -65 0 0 170 0 170 65 0 65 0 0 -30z m230
-36 l0 -65 33 3 c31 3 32 4 33 56 2 72 2 72 19 72 13 0 15 -26 15 -171 0 -157
-1 -170 -17 -167 -15 3 -18 14 -18 65 0 68 -5 77 -40 79 -24 1 -25 -1 -25 -73
0 -66 -2 -73 -20 -73 -19 0 -20 7 -20 170 0 163 1 170 20 170 18 0 20 -7 20
-66z m205 -44 l30 -105 3 108 c2 86 6 107 17 107 13 0 15 -27 15 -170 0 -158
-1 -170 -18 -170 -15 0 -25 21 -50 98 l-30 97 -1 -97 c-1 -87 -3 -98 -19 -98
-17 0 -18 12 -16 168 0 92 2 168 3 170 0 2 9 2 18 0 13 -2 26 -32 48 -108z
m323 -33 l3 -137 39 0 c38 0 40 -2 40 -30 l0 -30 -60 0 -60 0 0 171 c0 157 1
170 18 167 15 -3 17 -19 20 -141z m513 88 c7 -31 16 -58 20 -60 4 -3 13 21 21
53 11 46 18 58 36 60 26 4 26 5 8 -50 -35 -106 -46 -161 -46 -222 0 -59 -2
-66 -20 -66 -18 0 -20 7 -20 73 0 52 -8 97 -30 166 -17 51 -30 95 -30 97 0 2
11 4 24 4 22 0 26 -7 37 -55z"/>
<path d="M569 2066 c-1 -1 -2 -149 -3 -330 -2 -274 0 -329 12 -333 32 -13 261
-7 286 7 32 17 72 96 86 169 26 138 4 354 -45 431 -32 51 -73 62 -221 59 -63
-2 -115 -3 -115 -3z"/>
<path d="M1960 610 c-17 -41 -9 -165 12 -186 15 -15 18 -14 37 5 12 12 22 33
22 49 4 59 -2 125 -12 143 -15 29 -45 23 -59 -11z"/>
<path d="M2292 623 c-42 -81 -2 -247 47 -198 20 20 28 145 11 185 -14 34 -44
40 -58 13z"/>
<path d="M281 544 c0 -11 3 -14 6 -6 3 7 2 16 -1 19 -3 4 -6 -2 -5 -13z"/>
<path d="M791 584 c0 -12 -4 -35 -7 -51 -4 -22 -2 -32 10 -36 22 -9 24 2 11
58 -7 28 -13 40 -14 29z"/>
</g>
</svg>
